<svg id="svg" version="1.1" width="400" height="436.3636363636364" viewBox="0 0 400 436.3636363636364" xmlns="http://www.w3.org/2000/svg" xmlns:xlink="http://www.w3.org/1999/xlink" ><g id="svgg"><path id="path0" d="M182.800 37.200 C 182.026 37.974,182.000 38.533,182.000 54.525 C 182.000 70.601,181.978 71.073,181.184 71.925 C 180.371 72.798,180.330 72.800,163.784 72.800 C 147.733 72.800,147.174 72.826,146.400 73.600 C 145.626 74.374,145.600 74.933,145.600 90.984 C 145.600 107.530,145.598 107.571,144.725 108.384 C 143.873 109.178,143.401 109.200,127.414 109.200 C 113.185 109.200,110.859 109.284,110.089 109.823 L 109.200 110.445 109.200 127.207 C 109.200 143.935,109.198 143.970,108.325 144.784 C 107.473 145.578,107.002 145.600,90.787 145.600 C 75.152 145.600,74.083 145.645,73.462 146.331 C 72.868 146.987,72.800 148.777,72.800 163.656 C 72.800 179.802,72.778 180.273,71.984 181.125 C 71.171 181.998,71.134 182.000,54.446 182.000 C 38.754 182.000,37.683 182.045,37.062 182.731 C 36.468 183.387,36.400 185.181,36.400 200.109 L 36.400 216.755 37.289 217.377 C 38.059 217.916,40.393 218.000,54.689 218.000 C 70.667 218.000,71.226 218.026,72.000 218.800 C 72.795 219.595,72.800 220.133,72.800 308.938 C 72.800 394.979,72.827 398.300,73.531 398.938 C 74.722 400.015,143.961 399.948,144.938 398.869 C 145.547 398.196,145.600 393.902,145.600 345.269 C 145.600 292.933,145.608 292.392,146.400 291.600 C 147.192 290.808,147.733 290.800,200.184 290.800 L 253.169 290.800 253.984 291.675 C 254.797 292.547,254.800 292.776,254.813 345.375 C 254.823 388.666,254.921 398.326,255.357 398.900 C 256.095 399.873,325.659 399.999,326.629 399.029 C 327.120 398.537,327.200 386.024,327.200 309.210 L 327.200 219.964 328.182 218.982 L 329.164 218.000 345.682 217.987 C 358.783 217.977,362.345 217.865,362.900 217.443 C 363.789 216.769,363.999 183.359,363.120 182.480 C 362.762 182.122,358.387 182.000,345.902 182.000 L 329.164 182.000 328.182 181.018 L 327.200 180.036 327.200 163.390 C 327.200 149.496,327.106 146.648,326.629 146.171 C 326.152 145.694,323.304 145.600,309.410 145.600 L 292.764 145.600 291.782 144.618 L 290.800 143.636 290.800 126.832 C 290.800 110.628,290.772 110.013,290.026 109.614 C 289.529 109.348,283.391 109.200,272.847 109.200 L 256.441 109.200 255.421 108.254 L 254.400 107.308 254.400 90.683 C 254.400 76.102,254.323 73.980,253.771 73.429 C 253.220 72.877,251.091 72.800,236.444 72.800 L 219.744 72.800 218.872 71.797 C 218.006 70.801,218.000 70.676,218.000 54.259 C 218.000 38.748,217.955 37.683,217.269 37.062 C 216.027 35.938,183.933 36.067,182.800 37.200 " stroke="none" fill="#fcfcfc" fill-rule="evenodd"></path><path id="path1" d="M144.000 17.400 L 144.000 34.800 125.800 34.800 L 107.600 34.800 107.600 53.000 L 107.600 71.200 89.400 71.200 L 71.200 71.200 71.200 89.400 L 71.200 107.600 53.000 107.600 L 34.800 107.600 34.800 125.600 L 34.800 143.600 17.400 143.600 L 0.000 143.600 0.000 199.800 L 0.000 256.000 17.400 256.000 L 34.800 256.000 34.800 346.000 L 34.800 436.000 109.200 436.000 L 183.600 436.000 183.600 382.400 L 183.600 328.800 200.000 328.800 L 216.400 328.800 216.400 382.400 L 216.400 436.000 291.000 436.000 L 365.600 436.000 365.600 346.000 L 365.600 256.000 382.800 256.000 L 400.000 256.000 400.000 199.800 L 400.000 143.600 382.800 143.600 L 365.600 143.600 365.600 125.600 L 365.600 107.600 347.400 107.600 L 329.200 107.600 329.200 89.400 L 329.200 71.200 311.000 71.200 L 292.800 71.200 292.800 53.000 L 292.800 34.800 274.600 34.800 L 256.400 34.800 256.400 17.400 L 256.400 0.000 200.200 0.000 L 144.000 0.000 144.000 17.400 M217.269 37.062 C 217.955 37.683,218.000 38.748,218.000 54.259 C 218.000 70.676,218.006 70.801,218.872 71.797 L 219.744 72.800 236.444 72.800 C 251.091 72.800,253.220 72.877,253.771 73.429 C 254.323 73.980,254.400 76.102,254.400 90.683 L 254.400 107.308 255.421 108.254 L 256.441 109.200 272.847 109.200 C 283.391 109.200,289.529 109.348,290.026 109.614 C 290.772 110.013,290.800 110.628,290.800 126.832 L 290.800 143.636 291.782 144.618 L 292.764 145.600 309.410 145.600 C 323.304 145.600,326.152 145.694,326.629 146.171 C 327.106 146.648,327.200 149.496,327.200 163.390 L 327.200 180.036 328.182 181.018 L 329.164 182.000 345.902 182.000 C 358.387 182.000,362.762 182.122,363.120 182.480 C 363.999 183.359,363.789 216.769,362.900 217.443 C 362.345 217.865,358.783 217.977,345.682 217.987 L 329.164 218.000 328.182 218.982 L 327.200 219.964 327.200 309.210 C 327.200 386.024,327.120 398.537,326.629 399.029 C 325.659 399.999,256.095 399.873,255.357 398.900 C 254.921 398.326,254.823 388.666,254.813 345.375 C 254.800 292.776,254.797 292.547,253.984 291.675 L 253.169 290.800 200.184 290.800 C 147.733 290.800,147.192 290.808,146.400 291.600 C 145.608 292.392,145.600 292.933,145.600 345.269 C 145.600 393.902,145.547 398.196,144.938 398.869 C 143.961 399.948,74.722 400.015,73.531 398.938 C 72.827 398.300,72.800 394.979,72.800 308.938 C 72.800 220.133,72.795 219.595,72.000 218.800 C 71.226 218.026,70.667 218.000,54.689 218.000 C 40.393 218.000,38.059 217.916,37.289 217.377 L 36.400 216.755 36.400 200.109 C 36.400 185.181,36.468 183.387,37.062 182.731 C 37.683 182.045,38.754 182.000,54.446 182.000 C 71.134 182.000,71.171 181.998,71.984 181.125 C 72.778 180.273,72.800 179.802,72.800 163.656 C 72.800 148.777,72.868 146.987,73.462 146.331 C 74.083 145.645,75.152 145.600,90.787 145.600 C 107.002 145.600,107.473 145.578,108.325 144.784 C 109.198 143.970,109.200 143.935,109.200 127.207 L 109.200 110.445 110.089 109.823 C 110.859 109.284,113.185 109.200,127.414 109.200 C 143.401 109.200,143.873 109.178,144.725 108.384 C 145.598 107.571,145.600 107.530,145.600 90.984 C 145.600 74.933,145.626 74.374,146.400 73.600 C 147.174 72.826,147.733 72.800,163.784 72.800 C 180.330 72.800,180.371 72.798,181.184 71.925 C 181.978 71.073,182.000 70.601,182.000 54.525 C 182.000 38.533,182.026 37.974,182.800 37.200 C 183.933 36.067,216.027 35.938,217.269 37.062 " stroke="none" fill="#040404" fill-rule="evenodd"></path></g></svg>