<svg id="svg" version="1.1" width="400" height="111.62790697674419" viewBox="0 0 400 111.62790697674419" xmlns="http://www.w3.org/2000/svg" xmlns:xlink="http://www.w3.org/1999/xlink" ><g id="svgg"><path id="path0" d="M0.000 55.750 L 0.000 111.500 18.833 111.500 L 37.667 111.500 37.667 93.167 L 37.667 74.833 51.583 74.833 L 65.500 74.833 65.500 70.167 L 65.500 65.500 70.167 65.500 L 74.833 65.500 74.833 37.167 L 74.833 8.833 70.167 8.833 L 65.500 8.833 65.500 4.417 L 65.500 0.000 32.750 0.000 L 0.000 0.000 0.000 55.750 M102.000 55.750 L 102.000 111.500 139.583 111.500 L 177.167 111.500 177.167 92.750 L 177.167 74.000 158.583 74.000 L 140.000 74.000 140.000 37.000 L 140.000 0.000 121.000 0.000 L 102.000 0.000 102.000 55.750 M213.500 9.083 L 213.500 18.167 208.833 18.167 L 204.167 18.167 204.167 64.833 L 204.167 111.500 223.250 111.500 L 242.333 111.500 242.333 97.833 L 242.333 84.167 246.583 84.167 L 250.833 84.167 250.833 97.833 L 250.833 111.500 269.833 111.500 L 288.833 111.500 288.833 64.833 L 288.833 18.167 284.167 18.167 L 279.500 18.167 279.500 9.083 L 279.500 0.000 246.500 0.000 L 213.500 0.000 213.500 9.083 M306.541 18.792 L 306.583 37.583 311.208 37.628 L 315.833 37.672 315.833 46.919 L 315.833 56.167 320.500 56.167 L 325.167 56.167 325.167 60.833 L 325.167 65.500 329.833 65.500 L 334.500 65.500 334.500 88.500 L 334.500 111.500 353.500 111.500 L 372.500 111.500 372.500 88.500 L 372.500 65.500 377.167 65.500 L 381.833 65.500 381.833 60.833 L 381.833 56.167 386.500 56.167 L 391.167 56.167 391.167 46.917 L 391.167 37.667 395.583 37.667 L 400.000 37.667 400.000 18.833 L 400.000 0.000 381.167 0.000 L 362.333 0.000 362.333 4.417 L 362.333 8.833 353.500 8.833 L 344.667 8.833 344.667 4.417 L 344.667 0.000 325.583 0.000 L 306.499 0.000 306.541 18.792 M55.570 9.434 C 55.801 9.523,55.833 10.069,55.833 13.839 C 55.833 19.260,55.252 18.667,60.562 18.667 C 63.610 18.667,64.822 18.722,64.967 18.867 C 65.179 19.079,65.275 54.856,65.066 55.403 C 64.977 55.634,64.433 55.667,60.675 55.667 C 55.256 55.667,55.852 55.065,55.795 60.593 L 55.750 64.917 42.067 64.959 C 29.082 65.000,28.369 65.017,28.109 65.305 C 27.859 65.582,27.831 67.189,27.792 83.846 L 27.750 102.083 18.677 102.126 C 11.530 102.160,9.577 102.125,9.472 101.960 C 9.239 101.594,9.300 9.766,9.533 9.533 C 9.745 9.321,55.021 9.224,55.570 9.434 M130.167 46.381 C 130.240 78.996,130.279 83.364,130.500 83.504 C 130.654 83.601,137.762 83.663,148.925 83.664 C 162.836 83.666,167.147 83.714,167.300 83.867 C 167.532 84.098,167.592 101.597,167.362 101.959 C 167.257 102.125,161.572 102.159,139.490 102.125 L 111.750 102.083 111.708 55.843 C 111.675 18.962,111.708 9.576,111.875 9.470 C 111.989 9.397,116.133 9.355,121.083 9.377 L 130.083 9.417 130.167 46.381 M269.633 9.533 C 269.784 9.684,269.833 11.944,269.833 18.680 C 269.833 25.926,269.876 27.661,270.055 27.810 C 270.202 27.931,271.751 28.009,274.597 28.039 L 278.917 28.083 278.917 65.083 L 278.917 102.083 269.750 102.083 L 260.583 102.083 260.541 88.433 C 260.510 78.684,260.445 74.718,260.312 74.558 C 260.085 74.284,233.264 74.224,232.833 74.496 C 232.616 74.634,232.573 76.421,232.500 88.369 L 232.417 102.083 223.250 102.083 L 214.083 102.083 214.083 65.083 L 214.083 28.083 218.407 28.039 C 222.136 28.000,222.772 27.957,223.032 27.721 C 223.316 27.464,223.333 26.923,223.333 18.502 C 223.333 13.581,223.383 9.506,223.444 9.444 C 223.662 9.227,269.415 9.315,269.633 9.533 M334.794 13.768 C 334.850 19.254,334.241 18.649,339.760 18.705 L 344.083 18.750 344.126 27.735 C 344.157 34.032,344.225 36.786,344.355 36.943 C 344.630 37.274,362.370 37.274,362.645 36.943 C 362.775 36.786,362.843 34.032,362.874 27.735 L 362.917 18.750 367.361 18.667 C 369.806 18.621,371.869 18.521,371.945 18.445 C 372.021 18.369,372.121 16.306,372.167 13.861 L 372.250 9.417 381.417 9.417 L 390.583 9.417 390.583 18.583 L 390.583 27.750 386.260 27.795 C 382.531 27.833,381.895 27.877,381.635 28.112 C 381.351 28.369,381.333 28.911,381.333 37.359 C 381.333 42.295,381.315 46.349,381.292 46.368 C 381.269 46.387,379.225 46.444,376.750 46.493 L 372.250 46.583 372.160 51.083 C 372.110 53.558,372.054 55.602,372.035 55.625 C 372.016 55.648,370.083 55.667,367.739 55.667 C 365.121 55.667,363.354 55.733,363.156 55.839 C 362.839 56.008,362.833 56.441,362.833 78.826 C 362.833 91.373,362.788 101.758,362.732 101.903 C 362.599 102.249,344.711 102.311,344.367 101.967 C 344.213 101.813,344.167 96.464,344.167 78.904 C 344.167 60.069,344.128 56.008,343.945 55.857 C 343.798 55.735,342.249 55.657,339.403 55.628 L 335.083 55.583 335.000 51.250 C 334.954 48.867,334.856 46.823,334.782 46.708 C 334.680 46.551,333.606 46.500,330.357 46.500 C 327.242 46.500,326.012 46.445,325.867 46.300 C 325.716 46.149,325.667 43.909,325.667 37.242 C 325.667 28.907,325.649 28.369,325.365 28.112 C 325.105 27.877,324.469 27.833,320.740 27.795 L 316.417 27.750 316.373 18.750 C 316.350 13.800,316.366 9.656,316.410 9.540 C 316.474 9.374,318.405 9.340,325.620 9.374 L 334.750 9.417 334.794 13.768 M28.109 28.138 C 27.699 28.591,27.686 45.829,28.095 46.238 C 28.439 46.582,45.958 46.642,46.300 46.300 C 46.589 46.011,46.589 28.322,46.300 28.033 C 45.922 27.655,28.455 27.756,28.109 28.138 M237.417 27.996 L 232.750 28.083 232.647 33.250 C 232.403 45.479,232.473 55.257,232.805 55.558 C 233.260 55.969,259.827 55.983,260.238 55.571 C 260.637 55.172,260.637 28.495,260.238 28.095 C 259.963 27.820,249.288 27.774,237.417 27.996 M250.833 41.833 L 250.833 46.000 246.583 46.000 L 242.333 46.000 242.333 41.833 L 242.333 37.667 246.583 37.667 L 250.833 37.667 250.833 41.833 " stroke="none" fill="#000000" fill-rule="evenodd"></path><path id="path1" d="M9.533 9.533 C 9.300 9.766,9.239 101.594,9.472 101.960 C 9.577 102.125,11.530 102.160,18.677 102.126 L 27.750 102.083 27.792 83.846 C 27.831 67.189,27.859 65.582,28.109 65.305 C 28.369 65.017,29.082 65.000,42.067 64.959 L 55.750 64.917 55.795 60.593 C 55.852 55.065,55.256 55.667,60.675 55.667 C 64.433 55.667,64.977 55.634,65.066 55.403 C 65.275 54.856,65.179 19.079,64.967 18.867 C 64.822 18.722,63.610 18.667,60.562 18.667 C 55.252 18.667,55.833 19.260,55.833 13.839 C 55.833 10.069,55.801 9.523,55.570 9.434 C 55.021 9.224,9.745 9.321,9.533 9.533 M111.875 9.470 C 111.708 9.576,111.675 18.962,111.708 55.843 L 111.750 102.083 139.490 102.125 C 161.572 102.159,167.257 102.125,167.362 101.959 C 167.592 101.597,167.532 84.098,167.300 83.867 C 167.147 83.714,162.836 83.666,148.925 83.664 C 137.762 83.663,130.654 83.601,130.500 83.504 C 130.279 83.364,130.240 78.996,130.167 46.381 L 130.083 9.417 121.083 9.377 C 116.133 9.355,111.989 9.397,111.875 9.470 M223.444 9.444 C 223.383 9.506,223.333 13.581,223.333 18.502 C 223.333 26.923,223.316 27.464,223.032 27.721 C 222.772 27.957,222.136 28.000,218.407 28.039 L 214.083 28.083 214.083 65.083 L 214.083 102.083 223.250 102.083 L 232.417 102.083 232.500 88.369 C 232.573 76.421,232.616 74.634,232.833 74.496 C 233.264 74.224,260.085 74.284,260.312 74.558 C 260.445 74.718,260.510 78.684,260.541 88.433 L 260.583 102.083 269.750 102.083 L 278.917 102.083 278.917 65.083 L 278.917 28.083 274.597 28.039 C 271.751 28.009,270.202 27.931,270.055 27.810 C 269.876 27.661,269.833 25.926,269.833 18.680 C 269.833 11.944,269.784 9.684,269.633 9.533 C 269.415 9.315,223.662 9.227,223.444 9.444 M316.410 9.540 C 316.366 9.656,316.350 13.800,316.373 18.750 L 316.417 27.750 320.740 27.795 C 324.469 27.833,325.105 27.877,325.365 28.112 C 325.649 28.369,325.667 28.907,325.667 37.242 C 325.667 43.909,325.716 46.149,325.867 46.300 C 326.012 46.445,327.242 46.500,330.357 46.500 C 333.606 46.500,334.680 46.551,334.782 46.708 C 334.856 46.823,334.954 48.867,335.000 51.250 L 335.083 55.583 339.403 55.628 C 342.249 55.657,343.798 55.735,343.945 55.857 C 344.128 56.008,344.167 60.069,344.167 78.904 C 344.167 96.464,344.213 101.813,344.367 101.967 C 344.711 102.311,362.599 102.249,362.732 101.903 C 362.788 101.758,362.833 91.373,362.833 78.826 C 362.833 56.441,362.839 56.008,363.156 55.839 C 363.354 55.733,365.121 55.667,367.739 55.667 C 370.083 55.667,372.016 55.648,372.035 55.625 C 372.054 55.602,372.110 53.558,372.160 51.083 L 372.250 46.583 376.750 46.493 C 379.225 46.444,381.269 46.387,381.292 46.368 C 381.315 46.349,381.333 42.295,381.333 37.359 C 381.333 28.911,381.351 28.369,381.635 28.112 C 381.895 27.877,382.531 27.833,386.260 27.795 L 390.583 27.750 390.583 18.583 L 390.583 9.417 381.417 9.417 L 372.250 9.417 372.167 13.861 C 372.121 16.306,372.021 18.369,371.945 18.445 C 371.869 18.521,369.806 18.621,367.361 18.667 L 362.917 18.750 362.874 27.735 C 362.843 34.032,362.775 36.786,362.645 36.943 C 362.370 37.274,344.630 37.274,344.355 36.943 C 344.225 36.786,344.157 34.032,344.126 27.735 L 344.083 18.750 339.760 18.705 C 334.241 18.649,334.850 19.254,334.794 13.768 L 334.750 9.417 325.620 9.374 C 318.405 9.340,316.474 9.374,316.410 9.540 M46.300 28.033 C 46.589 28.322,46.589 46.011,46.300 46.300 C 45.958 46.642,28.439 46.582,28.095 46.238 C 27.686 45.829,27.699 28.591,28.109 28.138 C 28.455 27.756,45.922 27.655,46.300 28.033 M260.238 28.095 C 260.637 28.495,260.637 55.172,260.238 55.571 C 259.827 55.983,233.260 55.969,232.805 55.558 C 232.473 55.257,232.403 45.479,232.647 33.250 L 232.750 28.083 237.417 27.996 C 249.288 27.774,259.963 27.820,260.238 28.095 " stroke="none" fill="#ffffff" fill-rule="evenodd"></path></g></svg>