<svg id="svg" version="1.1" width="400" height="650" viewBox="0 0 400 650" xmlns="http://www.w3.org/2000/svg" xmlns:xlink="http://www.w3.org/1999/xlink" ><g id="svgg"><path id="path0" d="M48.000 24.000 L 48.000 48.000 24.000 48.000 L 0.000 48.000 0.000 150.200 L 0.000 252.400 49.000 252.400 L 98.000 252.400 98.000 451.200 L 98.000 650.000 200.200 650.000 L 302.400 650.000 302.400 526.203 L 302.400 402.406 327.300 402.303 L 352.200 402.200 352.303 377.300 L 352.406 352.400 376.203 352.400 L 400.000 352.400 400.000 200.200 L 400.000 48.000 376.200 48.000 L 352.400 48.000 352.400 24.000 L 352.400 0.000 200.200 0.000 L 48.000 0.000 48.000 24.000 M299.370 51.400 C 299.893 52.092,299.976 55.302,299.987 75.100 C 299.996 90.092,300.138 98.000,300.400 98.000 C 300.620 98.000,300.800 98.227,300.800 98.504 C 300.800 100.129,301.614 100.191,325.683 100.400 C 348.177 100.595,348.781 100.620,349.370 101.400 C 349.905 102.108,349.976 113.403,349.987 200.118 L 350.000 298.036 349.018 299.018 L 348.036 300.000 325.249 300.000 L 302.462 300.000 301.231 301.231 L 300.000 302.462 300.000 325.249 L 300.000 348.036 299.018 349.018 L 298.036 350.000 275.249 350.000 L 252.462 350.000 251.231 351.231 L 250.000 352.462 250.000 400.249 L 250.000 448.036 249.018 449.018 L 248.036 450.000 200.118 449.987 C 157.999 449.976,152.103 449.901,151.400 449.370 C 150.133 448.412,149.933 302.467,151.197 301.203 C 151.982 300.418,152.503 300.400,174.840 300.400 L 197.680 300.400 199.040 299.040 L 200.400 297.680 200.400 274.840 C 200.400 252.533,200.419 251.981,201.200 251.200 C 201.981 250.419,202.533 250.400,224.840 250.400 L 247.680 250.400 249.040 249.040 L 250.400 247.680 250.387 200.140 C 250.372 148.718,250.455 150.800,248.436 150.800 C 248.196 150.800,248.000 150.620,248.000 150.400 C 248.000 150.136,231.810 150.000,200.231 150.000 L 152.462 150.000 151.231 151.231 L 150.000 152.462 150.000 175.249 L 150.000 198.036 149.018 199.018 L 148.036 200.000 100.118 199.987 C 58.000 199.976,52.103 199.901,51.400 199.370 C 50.132 198.412,49.932 102.468,51.195 101.205 C 51.983 100.417,52.488 100.400,74.840 100.400 L 97.680 100.400 99.040 99.040 L 100.400 97.680 100.400 74.840 C 100.400 52.511,100.418 51.982,101.202 51.198 C 102.467 49.933,298.413 50.133,299.370 51.400 M249.370 501.400 C 249.901 502.103,249.976 508.000,249.987 550.118 L 250.000 598.036 249.018 599.018 L 248.036 600.000 200.118 599.987 C 158.000 599.976,152.103 599.901,151.400 599.370 C 150.128 598.409,149.933 502.467,151.200 501.200 C 152.467 499.933,248.409 500.128,249.370 501.400 " stroke="none" fill="#000000" fill-rule="evenodd"></path><path id="path1" d="M101.202 51.198 C 100.418 51.982,100.400 52.511,100.400 74.840 L 100.400 97.680 99.040 99.040 L 97.680 100.400 74.840 100.400 C 52.488 100.400,51.983 100.417,51.195 101.205 C 49.932 102.468,50.132 198.412,51.400 199.370 C 52.103 199.901,58.000 199.976,100.118 199.987 L 148.036 200.000 149.018 199.018 L 150.000 198.036 150.000 175.249 L 150.000 152.462 151.231 151.231 L 152.462 150.000 200.231 150.000 C 231.810 150.000,248.000 150.136,248.000 150.400 C 248.000 150.620,248.196 150.800,248.436 150.800 C 250.455 150.800,250.372 148.718,250.387 200.140 L 250.400 247.680 249.040 249.040 L 247.680 250.400 224.840 250.400 C 202.533 250.400,201.981 250.419,201.200 251.200 C 200.419 251.981,200.400 252.533,200.400 274.840 L 200.400 297.680 199.040 299.040 L 197.680 300.400 174.840 300.400 C 152.503 300.400,151.982 300.418,151.197 301.203 C 149.933 302.467,150.133 448.412,151.400 449.370 C 152.103 449.901,157.999 449.976,200.118 449.987 L 248.036 450.000 249.018 449.018 L 250.000 448.036 250.000 400.249 L 250.000 352.462 251.231 351.231 L 252.462 350.000 275.249 350.000 L 298.036 350.000 299.018 349.018 L 300.000 348.036 300.000 325.249 L 300.000 302.462 301.231 301.231 L 302.462 300.000 325.249 300.000 L 348.036 300.000 349.018 299.018 L 350.000 298.036 349.987 200.118 C 349.976 113.403,349.905 102.108,349.370 101.400 C 348.781 100.620,348.177 100.595,325.683 100.400 C 301.614 100.191,300.800 100.129,300.800 98.504 C 300.800 98.227,300.620 98.000,300.400 98.000 C 300.138 98.000,299.996 90.092,299.987 75.100 C 299.976 55.302,299.893 52.092,299.370 51.400 C 298.413 50.133,102.467 49.933,101.202 51.198 M151.200 501.200 C 149.933 502.467,150.128 598.409,151.400 599.370 C 152.103 599.901,158.000 599.976,200.118 599.987 L 248.036 600.000 249.018 599.018 L 250.000 598.036 249.987 550.118 C 249.976 508.000,249.901 502.103,249.370 501.400 C 248.409 500.128,152.467 499.933,151.200 501.200 " stroke="none" fill="#ffffff" fill-rule="evenodd"></path></g></svg>