<svg id="svg" version="1.1" width="400" height="320" viewBox="0 0 400 320" xmlns="http://www.w3.org/2000/svg" xmlns:xlink="http://www.w3.org/1999/xlink" ><g id="svgg"><path id="path0" d="M105.600 12.800 L 105.600 25.600 92.160 25.600 L 78.720 25.600 78.720 38.876 L 78.720 52.153 65.520 52.236 L 52.320 52.320 52.236 65.520 L 52.153 78.720 26.076 78.720 L 0.000 78.720 0.000 160.000 L 0.000 241.280 26.080 241.280 L 52.160 241.280 52.160 254.560 L 52.160 267.840 65.436 267.840 L 78.713 267.840 78.796 281.200 L 78.880 294.560 92.240 294.644 L 105.600 294.727 105.600 307.364 L 105.600 320.000 160.160 320.000 L 214.720 320.000 214.720 160.000 L 214.720 0.000 160.160 0.000 L 105.600 0.000 105.600 12.800 M186.176 27.264 C 186.943 28.031,186.709 292.698,185.941 293.109 C 184.760 293.741,134.731 293.550,134.025 292.910 C 133.478 292.415,133.440 291.591,133.440 280.110 C 133.440 268.267,133.418 267.818,132.800 267.200 C 132.182 266.582,131.733 266.560,119.904 266.560 C 110.798 266.560,107.549 266.461,107.264 266.176 C 106.979 265.891,106.880 262.664,106.880 253.637 C 106.880 241.597,106.873 241.474,106.184 240.741 L 105.488 240.000 93.523 240.000 C 85.887 240.000,81.334 239.880,80.939 239.669 C 80.344 239.350,80.320 238.872,80.320 227.129 C 80.320 215.035,80.313 214.914,79.624 214.181 L 78.928 213.440 53.523 213.440 C 36.623 213.440,27.911 213.329,27.499 213.109 C 26.732 212.698,26.499 108.029,27.264 107.264 C 27.556 106.972,33.746 106.880,53.168 106.880 L 78.687 106.880 79.504 106.123 L 80.320 105.367 80.320 93.227 C 80.320 84.212,80.419 80.989,80.704 80.704 C 80.989 80.419,84.212 80.320,93.227 80.320 L 105.367 80.320 106.123 79.504 L 106.880 78.687 106.880 66.395 C 106.880 54.569,106.904 54.090,107.499 53.771 C 107.894 53.560,112.482 53.440,120.194 53.440 C 130.981 53.440,132.332 53.384,132.855 52.910 C 133.402 52.415,133.440 51.596,133.440 40.249 C 133.440 32.499,133.560 27.894,133.771 27.499 C 134.181 26.733,185.415 26.503,186.176 27.264 " stroke="none" fill="#000000" fill-rule="evenodd"></path><path id="path1" d="M133.771 27.499 C 133.560 27.894,133.440 32.499,133.440 40.249 C 133.440 51.596,133.402 52.415,132.855 52.910 C 132.332 53.384,130.981 53.440,120.194 53.440 C 112.482 53.440,107.894 53.560,107.499 53.771 C 106.904 54.090,106.880 54.569,106.880 66.395 L 106.880 78.687 106.123 79.504 L 105.367 80.320 93.227 80.320 C 84.212 80.320,80.989 80.419,80.704 80.704 C 80.419 80.989,80.320 84.212,80.320 93.227 L 80.320 105.367 79.504 106.123 L 78.687 106.880 53.168 106.880 C 33.746 106.880,27.556 106.972,27.264 107.264 C 26.499 108.029,26.732 212.698,27.499 213.109 C 27.911 213.329,36.623 213.440,53.523 213.440 L 78.928 213.440 79.624 214.181 C 80.313 214.914,80.320 215.035,80.320 227.129 C 80.320 238.872,80.344 239.350,80.939 239.669 C 81.334 239.880,85.887 240.000,93.523 240.000 L 105.488 240.000 106.184 240.741 C 106.873 241.474,106.880 241.597,106.880 253.637 C 106.880 262.664,106.979 265.891,107.264 266.176 C 107.549 266.461,110.798 266.560,119.904 266.560 C 131.733 266.560,132.182 266.582,132.800 267.200 C 133.418 267.818,133.440 268.267,133.440 280.110 C 133.440 291.591,133.478 292.415,134.025 292.910 C 134.731 293.550,184.760 293.741,185.941 293.109 C 186.709 292.698,186.943 28.031,186.176 27.264 C 185.415 26.503,134.181 26.733,133.771 27.499 " stroke="none" fill="#ffffff" fill-rule="evenodd"></path></g></svg>