<svg id="svg" version="1.1" width="400" height="320" viewBox="0 0 400 320" xmlns="http://www.w3.org/2000/svg" xmlns:xlink="http://www.w3.org/1999/xlink" ><g id="svgg"><path id="path0" d="M105.600 12.800 L 105.600 25.600 92.160 25.600 L 78.720 25.600 78.720 38.876 L 78.720 52.153 65.520 52.236 L 52.320 52.320 52.236 65.520 L 52.153 78.720 26.076 78.720 L 0.000 78.720 0.000 160.000 L 0.000 241.280 26.080 241.280 L 52.160 241.280 52.160 254.560 L 52.160 267.840 65.436 267.840 L 78.713 267.840 78.796 281.200 L 78.880 294.560 92.240 294.644 L 105.600 294.727 105.600 307.364 L 105.600 320.000 160.160 320.000 L 214.720 320.000 214.720 267.360 L 214.720 214.720 226.720 214.720 L 238.720 214.720 238.720 241.280 L 238.720 267.840 252.160 267.840 L 265.600 267.840 265.600 293.920 L 265.600 320.000 306.880 320.000 L 348.160 320.000 348.160 307.364 L 348.160 294.727 361.360 294.644 L 374.560 294.560 374.644 281.200 L 374.727 267.840 387.364 267.840 L 400.000 267.840 400.000 160.000 L 400.000 52.160 387.360 52.160 L 374.720 52.160 374.720 38.880 L 374.720 25.600 361.440 25.600 L 348.160 25.600 348.160 12.800 L 348.160 0.000 306.880 0.000 L 265.600 0.000 265.600 26.076 L 265.600 52.153 252.240 52.236 L 238.880 52.320 238.798 78.960 L 238.716 105.600 226.718 105.600 L 214.720 105.600 214.720 52.800 L 214.720 0.000 160.160 0.000 L 105.600 0.000 105.600 12.800 M186.176 27.264 C 186.943 28.031,186.709 292.698,185.941 293.109 C 184.760 293.741,134.731 293.550,134.025 292.910 C 133.478 292.415,133.440 291.591,133.440 280.110 C 133.440 268.267,133.418 267.818,132.800 267.200 C 132.182 266.582,131.733 266.560,119.904 266.560 C 110.798 266.560,107.549 266.461,107.264 266.176 C 106.979 265.891,106.880 262.664,106.880 253.637 C 106.880 241.597,106.873 241.474,106.184 240.741 L 105.488 240.000 93.523 240.000 C 85.887 240.000,81.334 239.880,80.939 239.669 C 80.344 239.350,80.320 238.872,80.320 227.129 C 80.320 215.035,80.313 214.914,79.624 214.181 L 78.928 213.440 53.523 213.440 C 36.623 213.440,27.911 213.329,27.499 213.109 C 26.732 212.698,26.499 108.029,27.264 107.264 C 27.556 106.972,33.746 106.880,53.168 106.880 L 78.687 106.880 79.504 106.123 L 80.320 105.367 80.320 93.227 C 80.320 84.212,80.419 80.989,80.704 80.704 C 80.989 80.419,84.212 80.320,93.227 80.320 L 105.367 80.320 106.123 79.504 L 106.880 78.687 106.880 66.395 C 106.880 54.569,106.904 54.090,107.499 53.771 C 107.894 53.560,112.482 53.440,120.194 53.440 C 130.981 53.440,132.332 53.384,132.855 52.910 C 133.402 52.415,133.440 51.596,133.440 40.249 C 133.440 32.499,133.560 27.894,133.771 27.499 C 134.181 26.733,185.415 26.503,186.176 27.264 M319.669 27.499 C 319.881 27.896,320.000 32.663,320.000 40.779 L 320.000 53.440 307.305 53.440 C 295.942 53.440,294.549 53.384,294.025 52.910 C 293.339 52.290,293.104 28.746,293.771 27.499 C 294.288 26.533,319.152 26.533,319.669 27.499 M345.941 53.771 C 346.537 54.090,346.560 54.577,346.560 67.051 L 346.560 80.000 334.059 80.000 C 326.054 80.000,321.335 79.881,320.939 79.669 C 320.343 79.350,320.320 78.863,320.320 66.389 L 320.320 53.440 332.821 53.440 C 340.826 53.440,345.545 53.559,345.941 53.771 M293.109 80.939 C 293.321 81.335,293.440 86.054,293.440 94.059 L 293.440 106.560 280.544 106.560 C 270.940 106.560,267.550 106.462,267.264 106.176 C 266.979 105.891,266.880 102.620,266.880 93.440 C 266.880 84.260,266.979 80.989,267.264 80.704 C 268.017 79.951,292.700 80.176,293.109 80.939 M373.109 80.939 C 373.748 82.133,373.552 238.706,372.910 239.415 C 372.414 239.963,371.576 240.000,359.630 240.000 L 346.880 240.000 346.880 160.160 L 346.880 80.320 359.829 80.320 C 372.303 80.320,372.790 80.343,373.109 80.939 M319.669 107.499 C 320.306 108.690,320.111 212.147,319.470 212.855 C 318.974 213.403,318.136 213.440,306.190 213.440 L 293.440 213.440 293.440 226.135 C 293.440 237.498,293.384 238.891,292.910 239.415 C 292.290 240.101,268.746 240.336,267.499 239.669 C 266.533 239.152,266.533 214.288,267.499 213.771 C 267.896 213.559,272.663 213.440,280.779 213.440 L 293.440 213.440 293.440 160.160 L 293.440 106.880 306.389 106.880 C 318.863 106.880,319.350 106.903,319.669 107.499 M265.941 133.771 C 266.707 134.181,266.937 185.415,266.176 186.176 C 265.891 186.461,262.620 186.560,253.440 186.560 C 244.260 186.560,240.989 186.461,240.704 186.176 C 239.994 185.466,240.166 134.201,240.880 133.786 C 241.651 133.337,265.104 133.323,265.941 133.771 M346.560 253.056 C 346.560 262.535,346.462 265.890,346.176 266.176 C 345.890 266.462,342.535 266.560,333.056 266.560 L 320.320 266.560 320.320 253.824 C 320.320 244.345,320.418 240.990,320.704 240.704 C 320.990 240.418,324.345 240.320,333.824 240.320 L 346.560 240.320 346.560 253.056 M320.000 279.575 C 320.000 290.938,319.944 292.331,319.470 292.855 C 318.695 293.712,294.968 293.764,294.025 292.910 C 293.339 292.290,293.104 268.746,293.771 267.499 C 294.090 266.903,294.577 266.880,307.051 266.880 L 320.000 266.880 320.000 279.575 " stroke="none" fill="#000000" fill-rule="evenodd"></path><path id="path1" d="M133.771 27.499 C 133.560 27.894,133.440 32.499,133.440 40.249 C 133.440 51.596,133.402 52.415,132.855 52.910 C 132.332 53.384,130.981 53.440,120.194 53.440 C 112.482 53.440,107.894 53.560,107.499 53.771 C 106.904 54.090,106.880 54.569,106.880 66.395 L 106.880 78.687 106.123 79.504 L 105.367 80.320 93.227 80.320 C 84.212 80.320,80.989 80.419,80.704 80.704 C 80.419 80.989,80.320 84.212,80.320 93.227 L 80.320 105.367 79.504 106.123 L 78.687 106.880 53.168 106.880 C 33.746 106.880,27.556 106.972,27.264 107.264 C 26.499 108.029,26.732 212.698,27.499 213.109 C 27.911 213.329,36.623 213.440,53.523 213.440 L 78.928 213.440 79.624 214.181 C 80.313 214.914,80.320 215.035,80.320 227.129 C 80.320 238.872,80.344 239.350,80.939 239.669 C 81.334 239.880,85.887 240.000,93.523 240.000 L 105.488 240.000 106.184 240.741 C 106.873 241.474,106.880 241.597,106.880 253.637 C 106.880 262.664,106.979 265.891,107.264 266.176 C 107.549 266.461,110.798 266.560,119.904 266.560 C 131.733 266.560,132.182 266.582,132.800 267.200 C 133.418 267.818,133.440 268.267,133.440 280.110 C 133.440 291.591,133.478 292.415,134.025 292.910 C 134.731 293.550,184.760 293.741,185.941 293.109 C 186.709 292.698,186.943 28.031,186.176 27.264 C 185.415 26.503,134.181 26.733,133.771 27.499 M293.771 27.499 C 293.104 28.746,293.339 52.290,294.025 52.910 C 294.549 53.384,295.942 53.440,307.305 53.440 L 320.000 53.440 320.000 40.779 C 320.000 32.663,319.881 27.896,319.669 27.499 C 319.152 26.533,294.288 26.533,293.771 27.499 M320.320 66.389 C 320.320 78.863,320.343 79.350,320.939 79.669 C 321.335 79.881,326.054 80.000,334.059 80.000 L 346.560 80.000 346.560 67.051 C 346.560 54.577,346.537 54.090,345.941 53.771 C 345.545 53.559,340.826 53.440,332.821 53.440 L 320.320 53.440 320.320 66.389 M267.264 80.704 C 266.979 80.989,266.880 84.260,266.880 93.440 C 266.880 102.620,266.979 105.891,267.264 106.176 C 267.550 106.462,270.940 106.560,280.544 106.560 L 293.440 106.560 293.440 94.059 C 293.440 86.054,293.321 81.335,293.109 80.939 C 292.700 80.176,268.017 79.951,267.264 80.704 M346.880 160.160 L 346.880 240.000 359.630 240.000 C 371.576 240.000,372.414 239.963,372.910 239.415 C 373.552 238.706,373.748 82.133,373.109 80.939 C 372.790 80.343,372.303 80.320,359.829 80.320 L 346.880 80.320 346.880 160.160 M293.440 160.160 L 293.440 213.440 280.779 213.440 C 272.663 213.440,267.896 213.559,267.499 213.771 C 266.533 214.288,266.533 239.152,267.499 239.669 C 268.746 240.336,292.290 240.101,292.910 239.415 C 293.384 238.891,293.440 237.498,293.440 226.135 L 293.440 213.440 306.190 213.440 C 318.136 213.440,318.974 213.403,319.470 212.855 C 320.111 212.147,320.306 108.690,319.669 107.499 C 319.350 106.903,318.863 106.880,306.389 106.880 L 293.440 106.880 293.440 160.160 M240.880 133.786 C 240.166 134.201,239.994 185.466,240.704 186.176 C 240.989 186.461,244.260 186.560,253.440 186.560 C 262.620 186.560,265.891 186.461,266.176 186.176 C 266.937 185.415,266.707 134.181,265.941 133.771 C 265.104 133.323,241.651 133.337,240.880 133.786 M320.704 240.704 C 320.418 240.990,320.320 244.345,320.320 253.824 L 320.320 266.560 333.056 266.560 C 342.535 266.560,345.890 266.462,346.176 266.176 C 346.462 265.890,346.560 262.535,346.560 253.056 L 346.560 240.320 333.824 240.320 C 324.345 240.320,320.990 240.418,320.704 240.704 M293.771 267.499 C 293.104 268.746,293.339 292.290,294.025 292.910 C 294.968 293.764,318.695 293.712,319.470 292.855 C 319.944 292.331,320.000 290.938,320.000 279.575 L 320.000 266.880 307.051 266.880 C 294.577 266.880,294.090 266.903,293.771 267.499 " stroke="none" fill="#ffffff" fill-rule="evenodd"></path></g></svg>